<svg width="13" height="13" viewBox="0 0 13 13" fill="none" xmlns="http://www.w3.org/2000/svg">
<path fill-rule="evenodd" clip-rule="evenodd" d="M12.8757 12.3437C12.8757 12.4846 12.8197 12.6198 12.7201 12.7194C12.6204 12.819 12.4853 12.875 12.3444 12.875H5.96942C5.82852 12.875 5.6934 12.819 5.59377 12.7194C5.49414 12.6198 5.43817 12.4846 5.43817 12.3437C5.43817 12.2029 5.49414 12.0677 5.59377 11.9681C5.6934 11.8685 5.82852 11.8125 5.96942 11.8125H11.062L0.280796 1.03237C0.231403 0.982981 0.192222 0.924343 0.16549 0.859807C0.138759 0.795271 0.125 0.726103 0.125 0.65625C0.125 0.586397 0.138759 0.517228 0.16549 0.452692C0.192222 0.388157 0.231403 0.329518 0.280796 0.280125C0.330189 0.230731 0.388828 0.19155 0.453364 0.164819C0.517899 0.138087 0.587068 0.124329 0.656921 0.124329C0.726774 0.124329 0.795943 0.138087 0.860478 0.164819C0.925014 0.19155 0.983653 0.230731 1.03305 0.280125L11.8132 11.0613V5.96875C11.8132 5.82785 11.8691 5.69273 11.9688 5.5931C12.0684 5.49347 12.2035 5.4375 12.3444 5.4375C12.4853 5.4375 12.6204 5.49347 12.7201 5.5931C12.8197 5.69273 12.8757 5.82785 12.8757 5.96875V12.3437Z" fill="#B19A45"/>
</svg>
