<svg width="324" height="38" viewBox="0 0 324 38" fill="none" xmlns="http://www.w3.org/2000/svg">
<g clip-path="url(#clip0_296_29)">
<path fill-rule="evenodd" clip-rule="evenodd" d="M317.983 34.0606H194.077V3.99355L317.983 3.94617V34.0606Z" fill="#996633"/>
<path d="M194.078 26.6067C198.27 26.6067 201.668 23.2026 201.668 19.0034C201.668 14.8042 198.27 11.4001 194.078 11.4001C189.886 11.4001 186.487 14.8042 186.487 19.0034C186.487 23.2026 189.886 26.6067 194.078 26.6067Z" fill="#996633"/>
<path d="M223.441 28.431C222.184 29.1477 220.47 29.5055 218.3 29.5055C215.465 29.5055 213.283 28.8208 211.754 27.4489C210.226 26.0782 209.462 24.0228 209.462 21.2803V16.0938H207.641V9.98086H209.462H217.821H221.32H221.963V16.0938H217.821V21.2069C217.821 21.8241 217.981 22.3062 218.301 22.6522C218.622 22.9981 219.041 23.1699 219.559 23.1699C220.274 23.1699 220.902 22.9851 221.445 22.6142L223.442 28.431H223.441ZM246.52 18.9844C246.52 19.1076 246.484 19.7627 246.409 20.9474H232.355C232.651 21.7139 233.144 22.3003 233.835 22.7067C234.524 23.1142 235.388 23.3179 236.424 23.3179C237.311 23.3179 238.057 23.2066 238.661 22.9851C239.266 22.7623 239.924 22.3797 240.64 21.8359L245.004 26.2441C243.031 28.418 240.085 29.5043 236.165 29.5043C233.724 29.5043 231.578 29.053 229.728 28.1514C227.88 27.2511 226.449 25.9965 225.438 24.3913C224.428 22.786 223.921 20.9829 223.921 18.982C223.921 16.9574 224.421 15.1484 225.419 13.5538C226.418 11.9605 227.786 10.7201 229.525 9.83041C231.264 8.9419 233.217 8.49646 235.386 8.49646C237.434 8.49646 239.301 8.90399 240.99 9.71905C242.679 10.5341 244.022 11.7318 245.022 13.3122C246.02 14.8937 246.519 16.7833 246.519 18.9808L246.52 18.9844ZM235.462 14.2054C234.599 14.2054 233.884 14.44 233.317 14.9091C232.75 15.3782 232.38 16.0452 232.207 16.91H238.717C238.544 16.0701 238.174 15.409 237.607 14.9281C237.041 14.4459 236.325 14.2054 235.462 14.2054ZM257.654 8.50001C261.204 8.50001 263.918 9.29612 265.791 10.8895C267.664 12.4817 268.602 14.934 268.602 18.244V29.1359H260.835V26.4692C259.874 28.495 257.963 29.5067 255.102 29.5067C253.499 29.5067 252.137 29.2283 251.014 28.6727C249.893 28.1171 249.043 27.3636 248.463 26.4123C247.884 25.4622 247.594 24.3936 247.594 23.2078C247.594 21.2069 248.358 19.6881 249.886 18.6503C251.415 17.6125 253.732 17.0948 256.84 17.0948H260.205C259.934 15.5145 258.665 14.7231 256.396 14.7231C255.484 14.7231 254.559 14.8653 253.622 15.1496C252.686 15.4339 251.884 15.8225 251.218 16.3165L248.556 10.7959C249.715 10.0792 251.114 9.51765 252.753 9.11012C254.392 8.70259 256.025 8.49883 257.653 8.49883L257.654 8.50001ZM257.617 24.4683C258.209 24.4683 258.74 24.3083 259.208 23.9861C259.676 23.6651 260.022 23.1829 260.244 22.542V21.1334H258.173C256.471 21.1334 255.621 21.7009 255.621 22.837C255.621 23.3061 255.8 23.6959 256.157 24.0039C256.514 24.3131 257.001 24.4671 257.619 24.4671L257.617 24.4683ZM299.004 8.50001C301.445 8.50001 303.399 9.25347 304.866 10.7604C306.333 12.2673 307.067 14.5395 307.067 17.577V29.1359H298.707V19.0223C298.707 16.7003 297.955 15.5394 296.451 15.5394C295.662 15.5394 295.027 15.8355 294.547 16.4279C294.067 17.0214 293.825 17.9585 293.825 19.2438V29.1347H285.466V19.0211C285.466 16.6992 284.714 15.5382 283.211 15.5382C282.422 15.5382 281.787 15.8343 281.305 16.4267C280.825 17.0202 280.584 17.9573 280.584 19.2427V29.1335H272.225V8.86845H280.177V10.758C281.68 9.2511 283.591 8.49764 285.91 8.49764C287.266 8.49764 288.487 8.74998 289.571 9.25702C290.656 9.76288 291.543 10.5353 292.233 11.5731C293.047 10.585 294.033 9.82567 295.192 9.29493C296.351 8.7642 297.622 8.49883 299.002 8.49883L299.004 8.50001Z" fill="#FEFEFE"/>
<path d="M0 3.94503H14.8167C18.1672 3.94503 21.1239 4.55396 23.6856 5.77299C26.2485 6.99202 28.2378 8.73349 29.6558 10.9998C31.0739 13.2661 31.7823 15.934 31.7823 19.0023C31.7823 22.0706 31.0739 24.7373 29.6558 27.0048C28.2378 29.2699 26.2485 31.0125 23.6856 32.2315C21.1227 33.4506 18.166 34.0595 14.8167 34.0595H0V3.94385L0 3.94503ZM14.3874 26.1447C16.5635 26.1447 18.302 25.5215 19.6065 24.2729C20.9099 23.0254 21.5603 21.2686 21.5603 19.0035C21.5603 16.7372 20.9087 14.9803 19.6065 13.7328C18.3032 12.4854 16.5647 11.861 14.3874 11.861H10.1356V26.1447H14.3874ZM55.533 28.8126H44.1094L42.0906 34.0607H31.7823L44.9255 3.94503H54.8896L68.0316 34.0607H57.553L55.5341 28.8126H55.533ZM52.7418 21.4984L49.8206 13.9259L46.9005 21.4984H52.7418ZM69.6648 3.94503H79.8005V34.0607H69.6648V3.94503ZM111.54 34.0607L111.455 20.3362L104.927 31.3501H100.46L93.9312 20.8101V34.0607H84.698V3.94503H93.03L102.823 19.9927L112.357 3.94503H120.689L120.776 34.0607H111.541H111.54ZM146.157 28.8126H134.734L132.715 34.0607H122.407L135.55 3.94503H145.514L158.657 34.0607H148.177L146.159 28.8126H146.157ZM143.366 21.4984L140.445 13.9259L137.525 21.4984H143.366ZM177.598 34.0607L172.401 26.0156L167.333 34.0607H155.781L166.646 18.8743L156.168 3.94503H167.549L172.66 11.5163L177.642 3.94503H188.551L178.115 18.4869L189.195 34.0607H177.599H177.598Z" fill="white"/>
<path fill-rule="evenodd" clip-rule="evenodd" d="M194.077 19.0022V11.3989C198.27 11.3989 201.668 14.8025 201.668 19.0022C201.668 23.2007 198.27 26.6054 194.077 26.6054V19.0022Z" fill="white"/>
<path d="M324 16.9314V21.073H322.622C322.054 21.073 321.615 21.2353 321.305 21.5599C320.994 21.8857 320.839 22.3726 320.839 23.0218V31.3844C320.839 33.55 320.252 35.1944 319.076 36.3174C317.9 37.4405 316.179 38.002 313.909 38.002H311.882V33.9422H312.733C313.76 33.9422 314.523 33.678 315.024 33.1508C315.523 32.6224 315.773 31.8595 315.773 30.8573V23.1427C315.773 21.8987 315.956 20.964 316.32 20.3421C316.686 19.7189 317.287 19.2723 318.124 19.001C317.287 18.7309 316.686 18.2843 316.32 17.6612C315.955 17.0392 315.773 16.1057 315.773 14.8606V7.14597C315.773 6.14373 315.523 5.3808 315.024 4.85125C314.524 4.32407 313.761 4.05989 312.733 4.05989H311.882V0H313.909C316.179 0 317.9 0.561537 319.076 1.68461C320.252 2.80768 320.839 4.45201 320.839 6.6176V14.9802C320.839 15.6294 320.994 16.1163 321.305 16.4421C321.615 16.7667 322.054 16.929 322.622 16.929H324V16.9314Z" fill="white"/>
</g>
<defs>
<clipPath id="clip0_296_29">
<rect width="324" height="38" fill="white"/>
</clipPath>
</defs>
</svg>
