<svg width="45" height="5" viewBox="0 0 45 5" fill="none" xmlns="http://www.w3.org/2000/svg">
<path d="M44.0853 0.000488281H26.0186V4.06149H44.0853V0.000488281Z" fill="#996633"/>
<path d="M26.0185 3.05602C26.5848 3.05602 27.0438 2.59696 27.0438 2.03069C27.0438 1.46442 26.5848 1.00537 26.0185 1.00537C25.4522 1.00537 24.9932 1.46442 24.9932 2.03069C24.9932 2.59696 25.4522 3.05602 26.0185 3.05602Z" fill="#996633"/>
<path d="M29.9851 3.30234C29.8152 3.39889 29.5838 3.44717 29.2906 3.44717C28.9075 3.44717 28.6129 3.35478 28.4063 3.16982C28.1999 2.98487 28.0966 2.70769 28.0966 2.33794V1.63841H27.8506V0.813862H28.0966H29.2258H29.6985H29.7854V1.63841H29.2258V2.32796C29.2258 2.41119 29.2475 2.47612 29.2908 2.5229C29.334 2.56951 29.3907 2.59282 29.4607 2.59282C29.5573 2.59282 29.6422 2.56785 29.7156 2.51774L29.9855 3.30217L29.9851 3.30234ZM33.1029 2.0283C33.1029 2.04495 33.0981 2.13318 33.0879 2.29316H31.1893C31.2292 2.39654 31.2958 2.47562 31.3892 2.53039C31.4824 2.58533 31.5989 2.61296 31.739 2.61296C31.8588 2.61296 31.9597 2.59798 32.0413 2.56801C32.1228 2.53805 32.2119 2.48627 32.3086 2.41319L32.8983 3.00767C32.6318 3.30084 32.2337 3.44734 31.7042 3.44734C31.3745 3.44734 31.0845 3.38657 30.8348 3.26488C30.5849 3.14335 30.3917 2.97421 30.2552 2.75779C30.1186 2.54138 30.0504 2.29816 30.0504 2.0283C30.0504 1.75528 30.1178 1.51123 30.2527 1.29631C30.3877 1.08139 30.5725 0.91408 30.8074 0.794218C31.0421 0.674355 31.3061 0.614258 31.5993 0.614258C31.8758 0.614258 32.128 0.669195 32.3562 0.779235C32.5845 0.889109 32.7659 1.05076 32.9008 1.26384C33.0356 1.4771 33.1031 1.73197 33.1031 2.0283H33.1029ZM31.6089 1.38387C31.4924 1.38387 31.3957 1.4155 31.3191 1.47876C31.2425 1.54203 31.1926 1.63192 31.1693 1.74862H32.0486C32.0253 1.63525 31.9753 1.54619 31.8988 1.48126C31.8222 1.41634 31.7256 1.38387 31.6089 1.38387V1.38387ZM34.6068 0.614424C35.0864 0.614424 35.4529 0.721801 35.7061 0.936721C35.9591 1.15147 36.0858 1.48209 36.0858 1.92858V3.39739H35.0365V3.03764C34.9066 3.31083 34.6484 3.44734 34.2621 3.44734C34.0456 3.44734 33.8615 3.40988 33.71 3.33497C33.5585 3.26005 33.4437 3.1585 33.3652 3.03015C33.287 2.90196 33.2479 2.75779 33.2479 2.59798C33.2479 2.32812 33.3511 2.12336 33.5575 1.98335C33.7641 1.84351 34.0771 1.77359 34.4969 1.77359H34.9516C34.915 1.56034 34.7435 1.45379 34.437 1.45379C34.3138 1.45379 34.189 1.47294 34.0623 1.51123C33.9358 1.54952 33.8276 1.60196 33.7375 1.66855L33.3777 0.924069C33.5342 0.827513 33.7233 0.7516 33.9448 0.696663C34.1663 0.641726 34.3869 0.614258 34.6068 0.614258V0.614424ZM34.6018 2.76795C34.6817 2.76795 34.7535 2.74631 34.8167 2.70302C34.88 2.65974 34.9266 2.59465 34.9566 2.50825V2.3183H34.6767C34.4468 2.3183 34.332 2.39488 34.332 2.54804C34.332 2.6113 34.3561 2.6639 34.4044 2.70536C34.4527 2.74697 34.5184 2.76778 34.6017 2.76778L34.6018 2.76795ZM40.1929 0.614424C40.5225 0.614424 40.7866 0.715974 40.9848 0.919241C41.1831 1.12251 41.2822 1.42882 41.2822 1.83852V3.39739H40.153V2.03346C40.153 1.72032 40.0514 1.56383 39.8481 1.56383C39.7416 1.56383 39.6559 1.60379 39.5908 1.6837C39.5258 1.76377 39.4932 1.89013 39.4932 2.06343V3.39739H38.364V2.03346C38.364 1.72032 38.2625 1.56383 38.0594 1.56383C37.9528 1.56383 37.8669 1.60379 37.802 1.6837C37.7371 1.76377 37.7046 1.89013 37.7046 2.06343V3.39739H36.5754V0.664367H37.6497V0.919241C37.8528 0.715974 38.111 0.614424 38.4241 0.614424C38.6072 0.614424 38.7722 0.648552 38.9189 0.716807C39.0655 0.785062 39.1852 0.889275 39.2786 1.02911C39.3887 0.895934 39.5218 0.793552 39.6783 0.721801C39.835 0.650216 40.0065 0.614424 40.1931 0.614424H40.1929Z" fill="#FEFEFE"/>
<path d="M0 0.000166475H2.0017C2.45418 0.000166475 2.85372 0.0825718 3.19982 0.246717C3.54576 0.410861 3.81512 0.646257 4.0064 0.951573C4.19768 1.25689 4.29357 1.61698 4.29357 2.03083C4.29357 2.44469 4.19751 2.80444 4.0064 3.11009C3.81512 3.41541 3.54593 3.65064 3.19982 3.81495C2.85355 3.97943 2.45385 4.0615 2.0017 4.0615H0V0L0 0.000166475ZM1.9436 2.99406C2.2376 2.99406 2.47283 2.90982 2.64862 2.74168C2.82425 2.57371 2.91249 2.33648 2.91249 2.031C2.91249 1.72535 2.82425 1.48829 2.64862 1.32015C2.47266 1.15201 2.2371 1.06777 1.9436 1.06777H1.36926V2.99406H1.9436ZM7.20206 3.35381H5.65883L5.38614 4.06167H3.99358L5.76904 0.000166475H7.11516L8.89062 4.06167H7.47491L7.20206 3.35381V3.35381ZM6.82499 2.36745L6.43044 1.34629L6.0359 2.36745H6.82499ZM9.21108 0.000166475H10.5803V4.06167H9.21108V0.000166475ZM14.8679 4.06167L14.8564 2.21079L13.9744 3.69625H13.371L12.489 2.27472V4.06167H11.2416V0.000166475H12.3671L13.6899 2.16435L14.978 0.000166475H16.1035L16.1152 4.06167H14.8678H14.8679ZM19.5444 3.35381H18.0012L17.7283 4.06167H16.3359L18.1114 0.000166475H19.4575L21.2329 4.06167H19.8172L19.5444 3.35381V3.35381ZM19.1673 2.36745L18.7728 1.34629L18.3782 2.36745H19.1673ZM23.7917 4.06167L23.0896 2.97675L22.4049 4.06167H20.8442L22.312 2.01352L20.8963 0.000166475H22.4337L23.1243 1.02133L23.7973 0.000166475H25.2711L23.8612 1.96141L25.3582 4.06167H23.7917Z" fill="white"/>
<path fill-rule="evenodd" clip-rule="evenodd" d="M26.0186 2.03069V1.00537C26.5849 1.00537 27.0439 1.46451 27.0439 2.03069C27.0439 2.59704 26.5849 3.05601 26.0186 3.05601V2.03069V2.03069Z" fill="white"/>
<path d="M42.6957 2.50993C42.8569 2.50993 42.9902 2.5627 43.0961 2.66858C43.202 2.77446 43.2549 2.91264 43.2549 3.08277C43.2549 3.15636 43.2446 3.2336 43.2238 3.31401C43.2032 3.39458 43.1605 3.51544 43.0961 3.67643L42.9569 4.06132H42.3388L42.4612 3.59352C42.36 3.55223 42.2806 3.48648 42.223 3.39675C42.1655 3.30702 42.1367 3.2023 42.1367 3.08261C42.1367 2.91247 42.1897 2.77429 42.2955 2.66842C42.4014 2.56254 42.5349 2.50977 42.6959 2.50977L42.6957 2.50993Z" fill="white"/>
<path d="M42.6959 1.74497C42.5394 1.74497 42.4059 1.69103 42.2955 1.58282C42.185 1.47462 42.1299 1.33777 42.1299 1.17213C42.1299 1.00166 42.1838 0.863817 42.292 0.757939C42.4002 0.65206 42.5348 0.599121 42.6959 0.599121C42.8569 0.599121 42.9916 0.65206 43.0998 0.757939C43.2078 0.863817 43.2619 1.00166 43.2619 1.17213C43.2619 1.33777 43.2066 1.47462 43.0963 1.58282C42.9857 1.69103 42.8526 1.74497 42.6959 1.74497Z" fill="white"/>
</svg>
