<svg width="203" height="91" viewBox="0 0 203 91" fill="none" xmlns="http://www.w3.org/2000/svg">
<path d="M8.075 25.5H16.025C17.925 25.5 19.6 25.8667 21.05 26.6C22.5167 27.3167 23.65 28.3333 24.45 29.65C25.2667 30.9667 25.675 32.5 25.675 34.25C25.675 36 25.2667 37.5333 24.45 38.85C23.65 40.1667 22.5167 41.1917 21.05 41.925C19.6 42.6417 17.925 43 16.025 43H8.075V25.5ZM15.825 39.675C17.575 39.675 18.9667 39.1917 20 38.225C21.05 37.2417 21.575 35.9167 21.575 34.25C21.575 32.5833 21.05 31.2667 20 30.3C18.9667 29.3167 17.575 28.825 15.825 28.825H12.125V39.675H15.825ZM40.0102 39.25H31.8852L30.3352 43H26.1852L33.9852 25.5H37.9852L45.8102 43H41.5602L40.0102 39.25ZM38.7352 36.175L35.9602 29.475L33.1852 36.175H38.7352ZM47.6258 25.5H51.6758V43H47.6258V25.5ZM71.7539 43L71.7289 32.5L66.5789 41.15H64.7539L59.6289 32.725V43H55.8289V25.5H59.1789L65.7289 36.375L72.1789 25.5H75.5039L75.5539 43H71.7539ZM91.2309 39.25H83.1059L81.5559 43H77.4059L85.2059 25.5H89.2059L97.0309 43H92.7809L91.2309 39.25ZM89.9559 36.175L87.1809 29.475L84.4059 36.175H89.9559ZM108.968 43L104.743 36.925L100.593 43H95.9432L102.418 34.1L96.2682 25.5H100.868L104.893 31.175L108.843 25.5H113.218L107.118 33.95L113.643 43H108.968ZM125.958 28.8H120.358V25.5H135.608V28.8H130.008V43H125.958V28.8ZM151.337 39.75V43H137.787V25.5H151.012V28.75H141.812V32.55H149.937V35.7H141.812V39.75H151.337ZM166.084 39.25H157.959L156.409 43H152.259L160.059 25.5H164.059L171.884 43H167.634L166.084 39.25ZM164.809 36.175L162.034 29.475L159.259 36.175H164.809ZM189.625 43L189.6 32.5L184.45 41.15H182.625L177.5 32.725V43H173.7V25.5H177.05L183.6 36.375L190.05 25.5H193.375L193.425 43H189.625Z" fill="white"/>
<path d="M116.99 43.2C116.307 43.2 115.732 42.9667 115.265 42.5C114.798 42.0333 114.565 41.45 114.565 40.75C114.565 40.0333 114.798 39.4583 115.265 39.025C115.732 38.575 116.307 38.35 116.99 38.35C117.673 38.35 118.248 38.575 118.715 39.025C119.182 39.4583 119.415 40.0333 119.415 40.75C119.415 41.45 119.182 42.0333 118.715 42.5C118.248 42.9667 117.673 43.2 116.99 43.2Z" fill="#B19A45"/>
<path d="M7.188 60.472V62.56H6.624V61H0.696V62.56H0.12V60.472H0.492C0.916 60.448 1.204 60.12 1.356 59.488C1.516 58.848 1.628 57.952 1.692 56.8L1.776 54.736H6.18V60.472H7.188ZM2.244 56.836C2.204 57.788 2.124 58.58 2.004 59.212C1.884 59.844 1.668 60.264 1.356 60.472H5.58V55.276H2.316L2.244 56.836ZM11.0361 54.688C11.8121 54.688 12.4081 54.888 12.8241 55.288C13.2401 55.68 13.4481 56.26 13.4481 57.028V61H12.8721V59.884C12.6721 60.252 12.3801 60.54 11.9961 60.748C11.6121 60.948 11.1521 61.048 10.6161 61.048C9.92006 61.048 9.36806 60.884 8.96006 60.556C8.56006 60.228 8.36006 59.796 8.36006 59.26C8.36006 58.74 8.54406 58.32 8.91206 58C9.28806 57.672 9.88406 57.508 10.7001 57.508H12.8481V57.004C12.8481 56.42 12.6881 55.976 12.3681 55.672C12.0561 55.368 11.5961 55.216 10.9881 55.216C10.5721 55.216 10.1721 55.288 9.78806 55.432C9.41206 55.576 9.09206 55.768 8.82806 56.008L8.52806 55.576C8.84006 55.296 9.21606 55.08 9.65606 54.928C10.0961 54.768 10.5561 54.688 11.0361 54.688ZM10.7001 60.556C11.2201 60.556 11.6601 60.436 12.0201 60.196C12.3881 59.956 12.6641 59.608 12.8481 59.152V57.976H10.7121C10.0961 57.976 9.64806 58.088 9.36806 58.312C9.09606 58.536 8.96006 58.844 8.96006 59.236C8.96006 59.644 9.11206 59.968 9.41606 60.208C9.72006 60.44 10.1481 60.556 10.7001 60.556ZM21.2258 58.012H15.8378C15.8538 58.5 15.9778 58.936 16.2098 59.32C16.4418 59.696 16.7538 59.988 17.1458 60.196C17.5458 60.404 17.9938 60.508 18.4898 60.508C18.8978 60.508 19.2738 60.436 19.6178 60.292C19.9698 60.14 20.2618 59.92 20.4938 59.632L20.8418 60.028C20.5698 60.356 20.2258 60.608 19.8098 60.784C19.4018 60.96 18.9578 61.048 18.4778 61.048C17.8538 61.048 17.2978 60.912 16.8098 60.64C16.3218 60.368 15.9378 59.992 15.6578 59.512C15.3858 59.032 15.2498 58.484 15.2498 57.868C15.2498 57.26 15.3778 56.716 15.6338 56.236C15.8978 55.748 16.2578 55.368 16.7138 55.096C17.1698 54.824 17.6818 54.688 18.2498 54.688C18.8178 54.688 19.3258 54.824 19.7738 55.096C20.2298 55.36 20.5858 55.732 20.8418 56.212C21.1058 56.692 21.2378 57.236 21.2378 57.844L21.2258 58.012ZM18.2498 55.216C17.8098 55.216 17.4138 55.316 17.0618 55.516C16.7098 55.708 16.4258 55.984 16.2098 56.344C16.0018 56.696 15.8818 57.096 15.8498 57.544H20.6498C20.6258 57.096 20.5058 56.696 20.2898 56.344C20.0738 55.992 19.7898 55.716 19.4378 55.516C19.0858 55.316 18.6898 55.216 18.2498 55.216ZM30.0143 54.736V61H29.4623V55.696L26.7383 60.196H26.4623L23.7503 55.708V61H23.1983V54.736H23.7863L26.6183 59.476L29.4623 54.736H30.0143ZM42.5065 54.736V61H41.9545V55.696L39.2305 60.196H38.9545L36.2425 55.708V61H35.6905V54.736H36.2785L39.1105 59.476L41.9545 54.736H42.5065ZM47.1767 54.688C47.9527 54.688 48.5487 54.888 48.9647 55.288C49.3807 55.68 49.5887 56.26 49.5887 57.028V61H49.0127V59.884C48.8127 60.252 48.5207 60.54 48.1367 60.748C47.7527 60.948 47.2927 61.048 46.7567 61.048C46.0607 61.048 45.5087 60.884 45.1007 60.556C44.7007 60.228 44.5007 59.796 44.5007 59.26C44.5007 58.74 44.6847 58.32 45.0527 58C45.4287 57.672 46.0247 57.508 46.8407 57.508H48.9887V57.004C48.9887 56.42 48.8287 55.976 48.5087 55.672C48.1967 55.368 47.7367 55.216 47.1287 55.216C46.7127 55.216 46.3127 55.288 45.9287 55.432C45.5527 55.576 45.2327 55.768 44.9687 56.008L44.6687 55.576C44.9807 55.296 45.3567 55.08 45.7967 54.928C46.2367 54.768 46.6967 54.688 47.1767 54.688ZM46.8407 60.556C47.3607 60.556 47.8007 60.436 48.1607 60.196C48.5287 59.956 48.8047 59.608 48.9887 59.152V57.976H46.8527C46.2367 57.976 45.7887 58.088 45.5087 58.312C45.2367 58.536 45.1007 58.844 45.1007 59.236C45.1007 59.644 45.2527 59.968 45.5567 60.208C45.8607 60.44 46.2887 60.556 46.8407 60.556ZM54.1505 58.096H52.6265V61H52.0265V54.736H52.6265V57.58H54.1505L56.5145 54.736H57.1745L54.6305 57.772L57.3665 61H56.6465L54.1505 58.096ZM61.1561 61.048C60.5481 61.048 60.0041 60.912 59.5241 60.64C59.0441 60.368 58.6681 59.992 58.3961 59.512C58.1241 59.024 57.9881 58.476 57.9881 57.868C57.9881 57.252 58.1241 56.704 58.3961 56.224C58.6681 55.736 59.0441 55.36 59.5241 55.096C60.0041 54.824 60.5481 54.688 61.1561 54.688C61.6601 54.688 62.1161 54.788 62.5241 54.988C62.9401 55.18 63.2761 55.464 63.5321 55.84L63.0881 56.164C62.8641 55.852 62.5841 55.62 62.2481 55.468C61.9201 55.308 61.5561 55.228 61.1561 55.228C60.6681 55.228 60.2281 55.34 59.8361 55.564C59.4521 55.78 59.1481 56.088 58.9241 56.488C58.7081 56.888 58.6001 57.348 58.6001 57.868C58.6001 58.388 58.7081 58.848 58.9241 59.248C59.1481 59.648 59.4521 59.96 59.8361 60.184C60.2281 60.4 60.6681 60.508 61.1561 60.508C61.5561 60.508 61.9201 60.432 62.2481 60.28C62.5841 60.12 62.8641 59.884 63.0881 59.572L63.5321 59.896C63.2761 60.272 62.9401 60.56 62.5241 60.76C62.1161 60.952 61.6601 61.048 61.1561 61.048ZM65.3038 54.736H65.9038V60.076L70.3678 54.736H70.8958V61H70.2958V55.66L65.8318 61H65.3038V54.736ZM80.2995 54.736V61H79.7475V55.696L77.0235 60.196H76.7475L74.0355 55.708V61H73.4835V54.736H74.0715L76.9035 59.476L79.7475 54.736H80.2995ZM87.9937 54.736L84.7777 61.852C84.5377 62.404 84.2577 62.796 83.9377 63.028C83.6257 63.26 83.2537 63.376 82.8217 63.376C82.5337 63.376 82.2617 63.328 82.0057 63.232C81.7577 63.136 81.5457 62.996 81.3697 62.812L81.6697 62.356C81.9897 62.684 82.3777 62.848 82.8337 62.848C83.1377 62.848 83.3977 62.764 83.6137 62.596C83.8297 62.428 84.0297 62.14 84.2137 61.732L84.5497 60.976L81.7297 54.736H82.3657L84.8737 60.34L87.3817 54.736H87.9937ZM96.2604 54.736V61H95.7084V55.696L92.9844 60.196H92.7084L89.9964 55.708V61H89.4444V54.736H90.0324L92.8644 59.476L95.7084 54.736H96.2604ZM105.645 57.772C106.565 57.932 107.025 58.448 107.025 59.32C107.025 59.864 106.825 60.28 106.425 60.568C106.033 60.856 105.441 61 104.649 61H101.937V54.736H104.577C105.273 54.736 105.817 54.876 106.209 55.156C106.609 55.428 106.809 55.82 106.809 56.332C106.809 56.7 106.705 57.008 106.497 57.256C106.297 57.496 106.013 57.668 105.645 57.772ZM102.525 57.592H104.541C105.077 57.592 105.489 57.492 105.777 57.292C106.065 57.084 106.209 56.788 106.209 56.404C106.209 56.012 106.065 55.72 105.777 55.528C105.497 55.328 105.085 55.228 104.541 55.228H102.525V57.592ZM104.637 60.508C105.829 60.508 106.425 60.104 106.425 59.296C106.425 58.872 106.289 58.56 106.017 58.36C105.745 58.16 105.317 58.06 104.733 58.06H102.525V60.508H104.637ZM111.231 54.688C112.007 54.688 112.603 54.888 113.019 55.288C113.435 55.68 113.643 56.26 113.643 57.028V61H113.067V59.884C112.867 60.252 112.575 60.54 112.191 60.748C111.807 60.948 111.347 61.048 110.811 61.048C110.115 61.048 109.563 60.884 109.155 60.556C108.755 60.228 108.555 59.796 108.555 59.26C108.555 58.74 108.739 58.32 109.107 58C109.483 57.672 110.079 57.508 110.895 57.508H113.043V57.004C113.043 56.42 112.883 55.976 112.563 55.672C112.251 55.368 111.791 55.216 111.183 55.216C110.767 55.216 110.367 55.288 109.983 55.432C109.607 55.576 109.287 55.768 109.023 56.008L108.723 55.576C109.035 55.296 109.411 55.08 109.851 54.928C110.291 54.768 110.751 54.688 111.231 54.688ZM110.895 60.556C111.415 60.556 111.855 60.436 112.215 60.196C112.583 59.956 112.859 59.608 113.043 59.152V57.976H110.907C110.291 57.976 109.843 58.088 109.563 58.312C109.291 58.536 109.155 58.844 109.155 59.236C109.155 59.644 109.307 59.968 109.611 60.208C109.915 60.44 110.343 60.556 110.895 60.556ZM124.505 54.736V61H116.081V54.736H116.681V60.472H120.005V54.736H120.605V60.472H123.905V54.736H124.505ZM132.437 58.012H127.049C127.065 58.5 127.189 58.936 127.421 59.32C127.653 59.696 127.965 59.988 128.357 60.196C128.757 60.404 129.205 60.508 129.701 60.508C130.109 60.508 130.485 60.436 130.829 60.292C131.181 60.14 131.473 59.92 131.705 59.632L132.053 60.028C131.781 60.356 131.437 60.608 131.021 60.784C130.613 60.96 130.169 61.048 129.689 61.048C129.065 61.048 128.509 60.912 128.021 60.64C127.533 60.368 127.149 59.992 126.869 59.512C126.597 59.032 126.461 58.484 126.461 57.868C126.461 57.26 126.589 56.716 126.845 56.236C127.109 55.748 127.469 55.368 127.925 55.096C128.381 54.824 128.893 54.688 129.461 54.688C130.029 54.688 130.537 54.824 130.985 55.096C131.441 55.36 131.797 55.732 132.053 56.212C132.317 56.692 132.449 57.236 132.449 57.844L132.437 58.012ZM129.461 55.216C129.021 55.216 128.625 55.316 128.273 55.516C127.921 55.708 127.637 55.984 127.421 56.344C127.213 56.696 127.093 57.096 127.061 57.544H131.861C131.837 57.096 131.717 56.696 131.501 56.344C131.285 55.992 131.001 55.716 130.649 55.516C130.297 55.316 129.901 55.216 129.461 55.216ZM141.225 54.736V61H140.673V55.696L137.949 60.196H137.673L134.961 55.708V61H134.409V54.736H134.997L137.829 59.476L140.673 54.736H141.225ZM148.919 54.736L145.703 61.852C145.463 62.404 145.183 62.796 144.863 63.028C144.551 63.26 144.179 63.376 143.747 63.376C143.459 63.376 143.187 63.328 142.931 63.232C142.683 63.136 142.471 62.996 142.295 62.812L142.595 62.356C142.915 62.684 143.303 62.848 143.759 62.848C144.063 62.848 144.323 62.764 144.539 62.596C144.755 62.428 144.955 62.14 145.139 61.732L145.475 60.976L142.655 54.736H143.291L145.799 60.34L148.307 54.736H148.919ZM156.356 54.832C156.94 54.832 157.456 54.964 157.904 55.228C158.36 55.484 158.716 55.844 158.972 56.308C159.228 56.772 159.356 57.308 159.356 57.916C159.356 58.524 159.224 59.068 158.96 59.548C158.704 60.02 158.34 60.392 157.868 60.664C157.404 60.928 156.872 61.06 156.272 61.06C155.584 61.06 154.996 60.892 154.508 60.556C154.028 60.22 153.66 59.744 153.404 59.128C153.156 58.512 153.032 57.792 153.032 56.968C153.032 56.032 153.144 55.256 153.368 54.64C153.6 54.024 153.944 53.54 154.4 53.188C154.864 52.828 155.456 52.56 156.176 52.384L158.948 51.712L159.044 52.276L156.404 52.9C155.756 53.052 155.228 53.276 154.82 53.572C154.42 53.86 154.12 54.256 153.92 54.76C153.72 55.264 153.616 55.908 153.608 56.692C153.816 56.116 154.164 55.664 154.652 55.336C155.14 55 155.708 54.832 156.356 54.832ZM156.284 60.544C156.756 60.544 157.18 60.432 157.556 60.208C157.932 59.984 158.224 59.676 158.432 59.284C158.64 58.884 158.744 58.432 158.744 57.928C158.744 57.424 158.64 56.98 158.432 56.596C158.224 56.204 157.932 55.904 157.556 55.696C157.188 55.48 156.764 55.372 156.284 55.372C155.804 55.372 155.376 55.48 155 55.696C154.624 55.904 154.332 56.204 154.124 56.596C153.916 56.98 153.812 57.424 153.812 57.928C153.812 58.432 153.916 58.884 154.124 59.284C154.332 59.676 154.624 59.984 155 60.208C155.376 60.432 155.804 60.544 156.284 60.544ZM161.327 54.736H161.927V60.076L166.391 54.736H166.919V61H166.319V55.66L161.855 61H161.327V54.736ZM172.127 57.736C172.591 57.824 172.947 58 173.195 58.264C173.451 58.52 173.579 58.836 173.579 59.212C173.579 59.58 173.455 59.904 173.207 60.184C172.967 60.464 172.639 60.68 172.223 60.832C171.807 60.984 171.355 61.06 170.867 61.06C170.419 61.06 169.979 60.992 169.547 60.856C169.123 60.712 168.751 60.508 168.431 60.244L168.671 59.8C168.951 60.04 169.283 60.224 169.667 60.352C170.059 60.48 170.455 60.544 170.855 60.544C171.447 60.544 171.947 60.42 172.355 60.172C172.763 59.916 172.967 59.58 172.967 59.164C172.967 58.796 172.795 58.508 172.451 58.3C172.115 58.084 171.659 57.976 171.083 57.976H170.075V57.52H171.059C171.563 57.52 171.975 57.42 172.295 57.22C172.623 57.02 172.787 56.752 172.787 56.416C172.787 56.024 172.607 55.724 172.247 55.516C171.895 55.3 171.443 55.192 170.891 55.192C170.187 55.192 169.523 55.372 168.899 55.732L168.719 55.252C169.423 54.86 170.171 54.664 170.963 54.664C171.659 54.664 172.239 54.816 172.703 55.12C173.167 55.416 173.399 55.82 173.399 56.332C173.399 56.66 173.283 56.948 173.051 57.196C172.819 57.444 172.511 57.624 172.127 57.736ZM175.671 54.736H176.271V57.592H180.519V54.736H181.119V61H180.519V58.12H176.271V61H175.671V54.736ZM189.05 58.012H183.662C183.678 58.5 183.802 58.936 184.034 59.32C184.266 59.696 184.578 59.988 184.97 60.196C185.37 60.404 185.818 60.508 186.314 60.508C186.722 60.508 187.098 60.436 187.442 60.292C187.794 60.14 188.086 59.92 188.318 59.632L188.666 60.028C188.394 60.356 188.05 60.608 187.634 60.784C187.226 60.96 186.782 61.048 186.302 61.048C185.678 61.048 185.122 60.912 184.634 60.64C184.146 60.368 183.762 59.992 183.482 59.512C183.21 59.032 183.074 58.484 183.074 57.868C183.074 57.26 183.202 56.716 183.458 56.236C183.722 55.748 184.082 55.368 184.538 55.096C184.994 54.824 185.506 54.688 186.074 54.688C186.642 54.688 187.15 54.824 187.598 55.096C188.054 55.36 188.41 55.732 188.666 56.212C188.93 56.692 189.062 57.236 189.062 57.844L189.05 58.012ZM186.074 55.216C185.634 55.216 185.238 55.316 184.886 55.516C184.534 55.708 184.25 55.984 184.034 56.344C183.826 56.696 183.706 57.096 183.674 57.544H188.474C188.45 57.096 188.33 56.696 188.114 56.344C187.898 55.992 187.614 55.716 187.262 55.516C186.91 55.316 186.514 55.216 186.074 55.216ZM193.555 61.048C192.947 61.048 192.403 60.912 191.923 60.64C191.443 60.368 191.067 59.992 190.795 59.512C190.523 59.024 190.387 58.476 190.387 57.868C190.387 57.252 190.523 56.704 190.795 56.224C191.067 55.736 191.443 55.36 191.923 55.096C192.403 54.824 192.947 54.688 193.555 54.688C194.059 54.688 194.515 54.788 194.923 54.988C195.339 55.18 195.675 55.464 195.931 55.84L195.487 56.164C195.263 55.852 194.983 55.62 194.647 55.468C194.319 55.308 193.955 55.228 193.555 55.228C193.067 55.228 192.627 55.34 192.235 55.564C191.851 55.78 191.547 56.088 191.323 56.488C191.107 56.888 190.999 57.348 190.999 57.868C190.999 58.388 191.107 58.848 191.323 59.248C191.547 59.648 191.851 59.96 192.235 60.184C192.627 60.4 193.067 60.508 193.555 60.508C193.955 60.508 194.319 60.432 194.647 60.28C194.983 60.12 195.263 59.884 195.487 59.572L195.931 59.896C195.675 60.272 195.339 60.56 194.923 60.76C194.515 60.952 194.059 61.048 193.555 61.048ZM202.697 54.736L199.481 61.852C199.241 62.404 198.961 62.796 198.641 63.028C198.329 63.26 197.957 63.376 197.525 63.376C197.237 63.376 196.965 63.328 196.709 63.232C196.461 63.136 196.249 62.996 196.073 62.812L196.373 62.356C196.693 62.684 197.081 62.848 197.537 62.848C197.841 62.848 198.101 62.764 198.317 62.596C198.533 62.428 198.733 62.14 198.917 61.732L199.253 60.976L196.433 54.736H197.069L199.577 60.34L202.085 54.736H202.697Z" fill="#B19A45"/>
</svg>
