<svg width="65" height="36" viewBox="0 0 65 36" fill="none" xmlns="http://www.w3.org/2000/svg">
<path d="M64.5166 5.86515C64.5166 9.09098 61.8773 11.7303 58.6515 11.7303C58.1236 11.7303 57.6251 11.6716 57.1559 11.525L46.7159 21.9357C46.8625 22.4049 46.9212 22.9327 46.9212 23.4606C46.9212 26.6864 44.2819 29.3258 41.056 29.3258C37.8302 29.3258 35.1909 26.6864 35.1909 23.4606C35.1909 22.9327 35.2495 22.4049 35.3962 21.9357L27.9181 14.4576C27.4489 14.6042 26.921 14.6629 26.3932 14.6629C25.8653 14.6629 25.3374 14.6042 24.8682 14.4576L11.525 27.8301C11.6716 28.2993 11.7303 28.7979 11.7303 29.3258C11.7303 32.5516 9.09098 35.1909 5.86515 35.1909C2.63932 35.1909 0 32.5516 0 29.3258C0 26.0999 2.63932 23.4606 5.86515 23.4606C6.39301 23.4606 6.89155 23.5193 7.36076 23.6659L20.7333 10.3227C20.5867 9.85345 20.528 9.32559 20.528 8.79772C20.528 5.57189 23.1673 2.93257 26.3932 2.93257C29.619 2.93257 32.2583 5.57189 32.2583 8.79772C32.2583 9.32559 32.1997 9.85345 32.053 10.3227L39.5311 17.8007C40.0003 17.6541 40.5282 17.5954 41.056 17.5954C41.5839 17.5954 42.1118 17.6541 42.581 17.8007L52.9916 7.36076C52.845 6.89155 52.7864 6.39301 52.7864 5.86515C52.7864 2.63932 55.4257 0 58.6515 0C61.8773 0 64.5166 2.63932 64.5166 5.86515Z" fill="#B19A45" fill-opacity="0.5"/>
</svg>
