<svg width="55" height="55" viewBox="0 0 55 55" fill="none" xmlns="http://www.w3.org/2000/svg">
<path d="M38.3337 5.83332C38.3337 2.85416 40.7712 0.416656 43.7503 0.416656C46.7295 0.416656 49.167 2.85416 49.167 5.83332C49.167 8.81249 46.7295 11.25 43.7503 11.25C40.7712 11.25 38.3337 8.81249 38.3337 5.83332ZM51.2795 15.5292C48.9774 14.5271 46.4316 13.9583 43.7503 13.9583C41.9357 13.9583 40.2024 14.2292 38.5503 14.7167C40.1212 16.2062 41.042 18.2917 41.042 20.5396V22.0833H54.5837V20.5396C54.5837 18.3458 53.2837 16.3958 51.2795 15.5292ZM11.2503 11.25C14.2295 11.25 16.667 8.81249 16.667 5.83332C16.667 2.85416 14.2295 0.416656 11.2503 0.416656C8.27116 0.416656 5.83366 2.85416 5.83366 5.83332C5.83366 8.81249 8.27116 11.25 11.2503 11.25ZM16.4503 14.7167C14.7982 14.2292 13.0649 13.9583 11.2503 13.9583C8.56908 13.9583 6.02324 14.5271 3.72116 15.5292C1.71699 16.3958 0.416992 18.3458 0.416992 20.5396V22.0833H13.9587V20.5396C13.9587 18.2917 14.8795 16.2062 16.4503 14.7167ZM22.0837 5.83332C22.0837 2.85416 24.5212 0.416656 27.5003 0.416656C30.4795 0.416656 32.917 2.85416 32.917 5.83332C32.917 8.81249 30.4795 11.25 27.5003 11.25C24.5212 11.25 22.0837 8.81249 22.0837 5.83332ZM38.3337 22.0833H16.667V20.5396C16.667 18.3458 17.967 16.3958 19.9712 15.5292C22.2732 14.5271 24.8191 13.9583 27.5003 13.9583C30.1816 13.9583 32.7274 14.5271 35.0295 15.5292C37.0337 16.3958 38.3337 18.3458 38.3337 20.5396V22.0833ZM35.6253 38.3333C35.6253 35.3542 38.0628 32.9167 41.042 32.9167C44.0212 32.9167 46.4587 35.3542 46.4587 38.3333C46.4587 41.3125 44.0212 43.75 41.042 43.75C38.0628 43.75 35.6253 41.3125 35.6253 38.3333ZM51.8753 54.5833H30.2087V53.0396C30.2087 50.8458 31.5087 48.8958 33.5128 48.0292C35.8149 47.0271 38.3607 46.4583 41.042 46.4583C43.7232 46.4583 46.2691 47.0271 48.5712 48.0292C50.5753 48.8958 51.8753 50.8458 51.8753 53.0396V54.5833ZM8.54199 38.3333C8.54199 35.3542 10.9795 32.9167 13.9587 32.9167C16.9378 32.9167 19.3753 35.3542 19.3753 38.3333C19.3753 41.3125 16.9378 43.75 13.9587 43.75C10.9795 43.75 8.54199 41.3125 8.54199 38.3333ZM24.792 54.5833H3.12533V53.0396C3.12533 50.8458 4.42533 48.8958 6.42949 48.0292C8.73158 47.0271 11.2774 46.4583 13.9587 46.4583C16.6399 46.4583 19.1857 47.0271 21.4878 48.0292C23.492 48.8958 24.792 50.8458 24.792 53.0396V54.5833ZM29.5316 30.2083V24.7917H25.4691V30.2083H19.3753L27.5003 38.3333L35.6253 30.2083H29.5316Z" fill="#B19A45" fill-opacity="0.5"/>
</svg>
