<svg width="25" height="25" viewBox="0 0 25 25" fill="none" xmlns="http://www.w3.org/2000/svg">
<path fill-rule="evenodd" clip-rule="evenodd" d="M24.1252 23.1563C24.1252 23.4132 24.0232 23.6596 23.8415 23.8413C23.6598 24.0229 23.4134 24.125 23.1565 24.125H11.5315C11.2746 24.125 11.0282 24.0229 10.8465 23.8413C10.6648 23.6596 10.5627 23.4132 10.5627 23.1563C10.5627 22.8993 10.6648 22.6529 10.8465 22.4712C11.0282 22.2896 11.2746 22.1875 11.5315 22.1875H20.8179L1.15812 2.52963C1.06805 2.43956 0.996604 2.33263 0.947858 2.21495C0.899113 2.09726 0.874023 1.97113 0.874023 1.84375C0.874023 1.71637 0.899113 1.59024 0.947858 1.47256C0.996604 1.35488 1.06805 1.24795 1.15812 1.15788C1.24819 1.06781 1.35512 0.99636 1.4728 0.947614C1.59049 0.898868 1.71662 0.873779 1.844 0.873779C1.97138 0.873779 2.09751 0.898868 2.21519 0.947614C2.33287 0.99636 2.4398 1.06781 2.52987 1.15788L22.1877 20.8177V11.5313C22.1877 11.2743 22.2898 11.0279 22.4715 10.8462C22.6532 10.6646 22.8996 10.5625 23.1565 10.5625C23.4134 10.5625 23.6598 10.6646 23.8415 10.8462C24.0232 11.0279 24.1252 11.2743 24.1252 11.5313V23.1563Z" fill="#B19A45"/>
</svg>
