<svg width="65" height="65" viewBox="0 0 65 65" fill="none" xmlns="http://www.w3.org/2000/svg">
<path d="M39.2534 37.8527L43.7695 30.03C44.0598 29.5452 43.9308 28.931 43.5114 28.5754L38.7372 24.8257C38.834 24.1145 38.8985 23.3711 38.8985 22.6276C38.8985 21.8841 38.834 21.1406 38.7372 20.3972L43.5114 16.6474C43.9308 16.2919 44.0598 15.6777 43.7695 15.1928L39.2534 7.37013C38.963 6.88525 38.3824 6.6913 37.8663 6.88525L32.2534 9.14801C31.0921 8.24291 29.834 7.49943 28.4469 6.91758L27.6082 0.937429C27.5114 0.420227 27.0276 0 26.4792 0H17.4469C16.8985 0 16.4146 0.420226 16.3179 0.969754L15.4792 6.9499C14.1243 7.53175 12.834 8.27523 11.6727 9.18034L6.0598 6.91758C5.54367 6.72363 4.96303 6.91758 4.67271 7.40245L0.156576 15.2251C-0.133747 15.71 -0.00471406 16.3242 0.414641 16.6798L5.18884 20.4295C5.09206 21.1406 5.02755 21.8841 5.02755 22.6276C5.02755 23.3711 5.09206 24.1145 5.18884 24.858L0.414641 28.6077C-0.00471406 28.9633 -0.133747 29.5775 0.156576 30.0624L4.67271 37.8851C4.96303 38.3699 5.54367 38.5639 6.0598 38.3699L11.6727 36.1072C12.834 37.0123 14.0921 37.7557 15.4792 38.3376L16.3179 44.3177C16.4146 44.835 16.8985 45.2552 17.4469 45.2552H26.4792C27.0276 45.2552 27.5114 44.8349 27.6082 44.2854L28.4469 38.3053C29.8017 37.7234 31.0921 36.9799 32.2534 36.0748L37.8663 38.3376C38.3824 38.5316 38.963 38.3376 39.2534 37.8527ZM21.963 29.0926C18.4146 29.0926 15.5114 26.1834 15.5114 22.6276C15.5114 19.0718 18.4146 16.1626 21.963 16.1626C25.5114 16.1626 28.4147 19.0718 28.4147 22.6276C28.4147 26.1834 25.5114 29.0926 21.963 29.0926Z" fill="#B19A45" fill-opacity="0.5"/>
<path d="M64.2534 53.886L61.1566 51.4939C61.2211 51.0414 61.2856 50.5565 61.2856 50.0716C61.2856 49.5868 61.2534 49.1019 61.1566 48.6493L64.2211 46.2573C64.4792 46.031 64.5759 45.6431 64.3824 45.3198L61.4792 40.3094C61.3179 39.9862 60.9308 39.8892 60.5759 39.9862L56.9953 41.4408C56.2534 40.859 55.4469 40.3741 54.5437 40.0185L53.9953 36.2041C53.963 35.8162 53.6405 35.5576 53.3179 35.5576H47.5437C47.1888 35.5576 46.8663 35.8162 46.834 36.1718L46.2856 39.9862C45.4147 40.3741 44.5759 40.8266 43.834 41.4085L40.2534 39.9539C39.9308 39.8246 39.5437 39.9539 39.3501 40.2771L36.4469 45.2875C36.2856 45.6108 36.3179 45.9987 36.6082 46.2249L39.6727 48.617C39.6082 49.0696 39.5759 49.5544 39.5759 50.0393C39.5759 50.5242 39.6082 51.0091 39.6727 51.4616L36.6082 53.8537C36.3501 54.0799 36.2534 54.4678 36.4469 54.7911L39.3501 59.8015C39.5114 60.1247 39.8985 60.2217 40.2534 60.1247L43.834 58.6701C44.5759 59.252 45.3824 59.7368 46.2856 60.0924L46.834 63.9068C46.8985 64.2624 47.1888 64.521 47.5437 64.521H53.3179C53.6727 64.521 53.9953 64.2624 54.0276 63.9068L54.5759 60.0924C55.4469 59.7045 56.2856 59.252 56.9953 58.6701L60.6082 60.1247C60.9308 60.254 61.3179 60.1247 61.5114 59.8015L64.4147 54.7911C64.6082 54.5002 64.5114 54.1123 64.2534 53.886ZM50.4147 54.4032C48.0276 54.4032 46.0598 52.4637 46.0598 50.0393C46.0598 47.6149 47.9953 45.6754 50.4147 45.6754C52.834 45.6754 54.7695 47.6149 54.7695 50.0393C54.7695 52.4637 52.8017 54.4032 50.4147 54.4032Z" fill="#B19A45" fill-opacity="0.5"/>
</svg>
