<svg width="10" height="10" viewBox="0 0 10 10" fill="none" xmlns="http://www.w3.org/2000/svg">
<path fill-rule="evenodd" clip-rule="evenodd" d="M9.50047 9.12499C9.50047 9.22444 9.46097 9.31983 9.39064 9.39015C9.32031 9.46048 9.22493 9.49999 9.12547 9.49999H4.62547C4.52602 9.49999 4.43064 9.46048 4.36031 9.39015C4.28998 9.31983 4.25047 9.22444 4.25047 9.12499C4.25047 9.02553 4.28998 8.93015 4.36031 8.85982C4.43064 8.78949 4.52602 8.74999 4.62547 8.74999H8.22022L0.609974 1.14049C0.575108 1.10562 0.547451 1.06423 0.528581 1.01867C0.509712 0.973118 0.5 0.924293 0.5 0.874985C0.5 0.825678 0.509712 0.776852 0.528581 0.731298C0.547451 0.685743 0.575108 0.644351 0.609974 0.609485C0.64484 0.574619 0.686232 0.546962 0.731786 0.528093C0.777341 0.509224 0.826166 0.499512 0.875474 0.499512C0.924782 0.499512 0.973607 0.509224 1.01916 0.528093C1.06472 0.546962 1.10611 0.574619 1.14097 0.609485L8.75047 8.21974V4.62499C8.75047 4.52553 8.78998 4.43015 8.86031 4.35982C8.93064 4.28949 9.02602 4.24999 9.12547 4.24999C9.22493 4.24999 9.32031 4.28949 9.39064 4.35982C9.46097 4.43015 9.50047 4.52553 9.50047 4.62499V9.12499Z" fill="#B19A45"/>
</svg>
