<svg width="18" height="18" viewBox="0 0 18 18" fill="none" xmlns="http://www.w3.org/2000/svg">
<path fill-rule="evenodd" clip-rule="evenodd" d="M17.2499 16.5625C17.2499 16.7449 17.1775 16.9197 17.0485 17.0487C16.9196 17.1776 16.7447 17.25 16.5624 17.25H8.31239C8.13005 17.25 7.95519 17.1776 7.82626 17.0487C7.69733 16.9197 7.62489 16.7449 7.62489 16.5625C7.62489 16.3802 7.69733 16.2053 7.82626 16.0764C7.95519 15.9474 8.13005 15.875 8.31239 15.875H14.9028L0.950642 1.92426C0.886721 1.86034 0.836016 1.78446 0.801422 1.70094C0.766829 1.61742 0.749023 1.52791 0.749023 1.43751C0.749023 1.34712 0.766829 1.2576 0.801422 1.17409C0.836016 1.09057 0.886721 1.01468 0.950642 0.950764C1.01456 0.886843 1.09045 0.836138 1.17396 0.801544C1.25748 0.766951 1.34699 0.749146 1.43739 0.749146C1.52779 0.749146 1.6173 0.766951 1.70082 0.801544C1.78434 0.836138 1.86022 0.886843 1.92414 0.950764L15.8749 14.9029V8.31251C15.8749 8.13018 15.9473 7.95531 16.0763 7.82638C16.2052 7.69745 16.3801 7.62501 16.5624 7.62501C16.7447 7.62501 16.9196 7.69745 17.0485 7.82638C17.1775 7.95531 17.2499 8.13018 17.2499 8.31251V16.5625Z" fill="#B19A45"/>
</svg>
